<?xml version="1.0" standalone="no"?>
<!DOCTYPE svg PUBLIC "-//W3C//DTD SVG 20010904//EN"
 "http://www.w3.org/TR/2001/REC-SVG-20010904/DTD/svg10.dtd">
<svg version="1.0" xmlns="http://www.w3.org/2000/svg"
 width="242.000000pt" height="242.000000pt" viewBox="0 0 242.000000 242.000000"
 preserveAspectRatio="xMidYMid meet">
<metadata>
Created by potrace 1.11, written by Peter Selinger 2001-2013
</metadata>
<g transform="translate(0.000000,242.000000) scale(0.100000,-0.100000)"
fill="#000000" stroke="none">
<path d="M1090 2267 c-47 -4 -101 -9 -120 -10 -19 -1 -37 -5 -40 -8 -3 -3 -41
-18 -85 -33 -255 -89 -485 -272 -590 -471 -14 -27 -37 -68 -51 -90 -29 -49
-80 -202 -88 -270 -3 -27 -9 -75 -13 -105 -45 -367 126 -747 446 -988 113 -85
303 -167 456 -197 55 -11 279 -14 326 -5 26 5 65 11 87 14 90 11 267 88 394
172 89 60 224 193 274 271 21 32 44 69 53 83 32 48 88 186 109 265 68 260 41
536 -76 770 -72 145 -204 303 -322 387 -200 142 -385 206 -640 221 -19 1 -73
-1 -120 -6z"/>
</g>
</svg>
